<svg xmlns="http://www.w3.org/2000/svg" width="25" viewBox="0 0 40 36.953">
    <g transform="translate(0 -19.869)">
        <path d="M21.847,20.444a2.515,2.515,0,0,1,1.705-.574h33.2a2.528,2.528,0,0,1,1.739.612,2.472,2.472,0,0,1,.837,1.777V42.045a2.476,2.476,0,0,1-2.58,2.28c-1.327,0-2.655.01-3.981-.006a.888.888,0,0,1-.868-1,.9.9,0,0,1,.938-.765c1.28-.007,2.559,0,3.839,0a.935.935,0,0,0,.634-.163.763.763,0,0,0,.244-.637q0-9.413,0-18.825a2.722,2.722,0,0,0-.07-.9.739.739,0,0,0-.738-.382q-16.406,0-32.812,0c-.334.013-.74-.066-1,.2a.821.821,0,0,0-.192.617q0,6.485,0,12.97a1.008,1.008,0,0,1-.319.824.876.876,0,0,1-1.244-.106,1.4,1.4,0,0,1-.216-.957c.006-4.271,0-8.543,0-12.814A2.46,2.46,0,0,1,21.847,20.444Z" transform="translate(-19.332 0)" fill="#343434"></path>
        <path d="M93.4,68.528a6.421,6.421,0,1,1-3.5,1.648,6.4,6.4,0,0,1,3.5-1.648m.337,1.746a4.649,4.649,0,1,0,2.852.6A4.668,4.668,0,0,0,93.736,70.274Z" transform="translate(-80.973 -44.806)" fill="#343434"></path>
        <path d="M5.067,249.254a7.594,7.594,0,0,1,1.966-.205q6.6,0,13.2,0a4.8,4.8,0,0,1,3.544,1.519,6.226,6.226,0,0,1,.987,1.516q1.478,2.858,2.959,5.715a.7.7,0,0,0,.834.41c1.184-.369,2.357-.775,3.541-1.148a3.5,3.5,0,0,1,1.775-.084,3.355,3.355,0,0,1,2.309,1.818,3.427,3.427,0,0,1-2.013,4.739c-1.057.353-2.117.7-3.175,1.045a13.811,13.811,0,0,1-1.847.533,6.754,6.754,0,0,1-4.614-.841,6.921,6.921,0,0,1-2.648-2.909c0,1.441.009,2.882,0,4.323a2.44,2.44,0,0,1-1.21,2.072,2.728,2.728,0,0,1-1.455.337c-3.905,0-7.812,0-11.717,0a2.462,2.462,0,0,1-2.066-1.128,2.885,2.885,0,0,1-.388-1.716,7.241,7.241,0,0,1-3.172-1.913A6.789,6.789,0,0,1,0,258.843v-3.334a6.845,6.845,0,0,1,1.092-3.419,6.727,6.727,0,0,1,3.975-2.837m.632,1.67a4.92,4.92,0,0,0-3.921,4.764c-.007.935,0,1.87,0,2.8A5.343,5.343,0,0,0,2,260.15a5.178,5.178,0,0,0,4.792,3.568,6.222,6.222,0,0,0,2.52-.591c.653-.284,1.308-.563,1.962-.845a1.4,1.4,0,0,0,.832-1.05,1.462,1.462,0,0,0-.416-1.295,1.4,1.4,0,0,0-1.5-.311c-.894.38-1.784.77-2.679,1.148a1.858,1.858,0,0,1-2.492-1.43c-.164-1.373-.307-2.747-.467-4.12a1.722,1.722,0,0,1,.094-.993,1.237,1.237,0,0,1,1.22-.708,1.419,1.419,0,0,1,.947.5q1.632,1.748,3.265,3.5,1.976-1.823,3.948-3.652a1.28,1.28,0,0,1,1.216-.35,1.316,1.316,0,0,1,.886.813l1.923,4.469a2.286,2.286,0,0,1,.314,1.184,1.425,1.425,0,0,1-.515.909q-2.107,1.838-4.216,3.673a1.737,1.737,0,0,1-1.528.505,2.28,2.28,0,0,1-1.172-.705A9.863,9.863,0,0,1,6.82,265.5a.858.858,0,0,0,.218.646.836.836,0,0,0,.619.182q5.584,0,11.17,0a3.235,3.235,0,0,0,.865-.052.674.674,0,0,0,.413-.666c.005-2.633,0-5.265,0-7.9a.9.9,0,0,1,1.066-.85,1.067,1.067,0,0,1,.73.678q.823,1.594,1.652,3.183a5.008,5.008,0,0,0,1.605,1.843,4.95,4.95,0,0,0,4.134.7c1.3-.407,2.591-.854,3.889-1.275a2.571,2.571,0,0,0,1.042-.515,1.631,1.631,0,0,0,.471-1.58,1.586,1.586,0,0,0-1.332-1.209,3.069,3.069,0,0,0-1.352.262c-.985.318-1.966.649-2.953.96a2.455,2.455,0,0,1-2.92-1.3q-1.545-2.985-3.091-5.969a3.053,3.053,0,0,0-1.836-1.666,4.346,4.346,0,0,0-1.448-.151H7.261a7.159,7.159,0,0,0-1.562.106m6.393,7.137a3.28,3.28,0,0,1,1.593,4.1q1.417-1.232,2.83-2.468c-.586-1.362-1.177-2.722-1.756-4.086-.9.8-1.776,1.636-2.667,2.45m-5.636-1.823c.113.965.209,1.932.335,2.9.579-.209,1.133-.48,1.7-.716Q7.475,257.326,6.456,256.237Z" transform="translate(0 -211.274)" fill="#343434"></path>
    </g>
</svg>