<svg width="80" viewBox="0 0 114 115" fill="none"
    xmlns="http://www.w3.org/2000/svg">
    <circle cx="57" cy="57" r="56" fill="black"></circle>
    <path d="M54.9645 0.0001534C54.1285 0.0001534 53.492 0.0049036 53.264 0.0334048C52.6881 0.0909863 52.1117 0.143241 51.5349 0.190161C35.351 1.64372 20.1836 10.3793 10.5787 23.8081C5.26688 31.1782 1.81375 39.7222 0.513021 48.7134C0.0570023 51.8438 0 52.7701 0 57.012C0 61.254 0.0570023 62.185 0.513021 65.3154C3.61015 86.7198 18.8488 104.704 39.5074 111.369C43.2078 112.556 47.1077 113.373 51.5444 113.862C53.2687 114.052 60.736 114.052 62.4651 113.862C70.1177 113.017 76.6064 111.122 83.0002 107.858C83.9835 107.355 84.1735 107.222 84.0405 107.108C83.9455 107.046 79.7653 101.441 74.7539 94.6621L65.6382 82.3496L54.2188 65.4484C50.4196 59.7935 46.5845 54.1628 42.7138 48.5567C42.671 48.5472 42.6283 56.0572 42.6045 65.2299C42.5713 81.2855 42.557 81.9268 42.3575 82.3068C42.1639 82.7521 41.8165 83.1129 41.379 83.3234C41.0227 83.4991 40.7139 83.5324 39.0276 83.5324H37.0943L36.5813 83.2094C36.2641 83.0106 36.0065 82.73 35.8355 82.3971L35.598 81.8936L35.6265 59.5534L35.6597 37.2037L36.0017 36.7667C36.2353 36.4935 36.5151 36.2636 36.8283 36.0874C37.2843 35.8641 37.4648 35.8451 39.3934 35.8451C41.664 35.8451 42.044 35.9306 42.633 36.5767C47.2556 43.4561 51.8397 50.3614 56.3848 57.2923C63.8777 68.6483 71.3751 80.0012 78.877 91.3512L87.9024 105.027L88.3584 104.728C92.7037 101.84 96.6433 98.3849 100.072 94.4531C107.254 86.2331 111.911 76.1161 113.487 65.3154C113.943 62.1802 114 61.2587 114 57.012C114 52.7701 113.943 51.8438 113.487 48.7134C110.39 27.309 95.156 9.32479 74.4973 2.66026C70.6348 1.43226 66.6574 0.599866 62.6266 0.175911C60.076 0.0551907 57.5228 -0.00341248 54.9693 0.0001534H54.9645ZM74.2931 34.2823C75.9414 34.2823 76.2312 34.3061 76.6017 34.5056C76.8671 34.6395 77.1032 34.8248 77.2964 35.0507C77.4897 35.2765 77.6362 35.5385 77.7275 35.8214C77.813 36.1064 77.8367 42.3054 77.813 56.2662L77.7845 76.3026L74.2503 70.8874L70.7067 65.4721V50.908C70.7067 41.4931 70.7542 36.1967 70.8159 35.9449C70.8956 35.6478 71.0347 35.3699 71.225 35.1282C71.4152 34.8865 71.6526 34.686 71.9227 34.5388C72.3788 34.3013 72.5403 34.2823 74.2978 34.2823H74.2931Z" fill="#D6D7E1"></path>
</svg>