<svg xmlns="http://www.w3.org/2000/svg" width="22" viewBox="0 0 37.041 40.44">
    <path d="M40,0h.576A14.257,14.257,0,0,1,54.537,13.476c.047,1.079.012,2.159.028,3.238A3.383,3.383,0,0,1,57,17.727a5.352,5.352,0,0,1,1.566,3.837v5.054a6.822,6.822,0,0,1-.2,2.272A3.169,3.169,0,0,1,56.7,30.716a4.632,4.632,0,0,1-1.638.415,17.6,17.6,0,0,1-1.611,2.182,9.964,9.964,0,0,1-7.3,3.176,4.487,4.487,0,0,1-1.561,2.731,5.3,5.3,0,0,1-3.007,1.22h-.549a5.1,5.1,0,0,1-3.19-1.434,4.928,4.928,0,1,1,8.308-4.473,7.919,7.919,0,0,0,6.457-3.3c-.4-.011-.793.01-1.189-.009a.945.945,0,0,1-.866-.971q0-6.164,0-12.328a1.189,1.189,0,0,1,.711-1.184c.429-.058.864,0,1.3-.033-.019-.961.009-1.922-.017-2.884a12.259,12.259,0,0,0-24.5-.006c-.02.966-.009,1.934-.007,2.9.421.013.844-.024,1.265.019a1.18,1.18,0,0,1,.732,1.193q.007,5.964,0,11.927a1.8,1.8,0,0,1-.105.862.959.959,0,0,1-.87.51c-1.184,0-2.369,0-3.553,0a4.011,4.011,0,0,1-1.757-.4,3.961,3.961,0,0,1-2.223-3.5c-.006-2.107,0-4.214,0-6.32A4.217,4.217,0,0,1,24.4,16.868a5.264,5.264,0,0,1,1.631-.15,32.791,32.791,0,0,1,.156-4.561A14.279,14.279,0,0,1,40,0M23.533,20.855c-.006,2.158,0,4.316,0,6.474a1.955,1.955,0,0,0,1.825,1.894c.893.015,1.787,0,2.679.006q0-5.254,0-10.509c-.923,0-1.846-.013-2.768.009a2.1,2.1,0,0,0-1.735,2.126m29.022-2.129q.011,5.246,0,10.494c.675.021,1.349,0,2.024.009a2.28,2.28,0,0,0,1.565-.494,1.433,1.433,0,0,0,.418-1.094q0-3.116,0-6.233a3.276,3.276,0,0,0-1.047-2.358,1.38,1.38,0,0,0-.938-.331c-.674,0-1.347-.009-2.021.007M40.711,32.591a2.965,2.965,0,0,0-2.25,2.081,2.86,2.86,0,0,0,.295,2.24,3.029,3.029,0,0,0,2.964,1.5,2.97,2.97,0,0,0,2.408-1.969,3.074,3.074,0,0,0-.866-3.16A2.957,2.957,0,0,0,40.711,32.591Z" transform="translate(-21.527)" fill="#343434"></path>
</svg>