<svg width="80" height="80" viewBox="0 0 112 112" fill="none"
    xmlns="http://www.w3.org/2000/svg">
    <g clip-path="url(#clip0_1423_357)">
        <path d="M56 112C86.9279 112 112 86.9279 112 56C112 25.0721 86.9279 0 56 0C25.0721 0 0 25.0721 0 56C0 86.9279 25.0721 112 56 112Z" fill="#3178C6" fill-opacity="0.18"></path>
        <g clip-path="url(#clip1_1423_357)">
            <path d="M45 34C42.0618 34 39.2995 35.1442 37.2218 37.2218C35.1442 39.2995 34 42.0618 34 45V67C34 69.9382 35.1442 72.7005 37.2218 74.7782C39.2995 76.8558 42.0618 78 45 78H67C69.9382 78 72.7005 76.8558 74.7782 74.7782C76.8558 72.7005 78 69.9382 78 67V45C78 42.0618 76.8558 39.2995 74.7782 37.2218C72.7005 35.1442 69.9382 34 67 34H45ZM45 30H67C75.2843 30 82 36.7157 82 45V67C82 75.2843 75.2843 82 67 82H45C36.7157 82 30 75.2843 30 67V45C30 36.7157 36.7157 30 45 30Z" fill="#3178C6"></path>
            <path d="M54.3789 50.7266V53.7852H49.2109V68H45.5781V53.7852H40.3867V50.7266H54.3789ZM62.7695 65.5039C63.6211 65.5039 64.3125 65.4102 64.8438 65.2227C65.8516 64.8633 66.3555 64.1953 66.3555 63.2188C66.3555 62.6484 66.1055 62.207 65.6055 61.8945C65.1055 61.5898 64.3203 61.3203 63.25 61.0859L61.4219 60.6758C59.625 60.2695 58.3828 59.8281 57.6953 59.3516C56.5312 58.5547 55.9492 57.3086 55.9492 55.6133C55.9492 54.0664 56.5117 52.7812 57.6367 51.7578C58.7617 50.7344 60.4141 50.2227 62.5938 50.2227C64.4141 50.2227 65.9648 50.707 67.2461 51.6758C68.5352 52.6367 69.2109 54.0352 69.2734 55.8711H65.8047C65.7422 54.832 65.2891 54.0938 64.4453 53.6562C63.8828 53.3672 63.1836 53.2227 62.3477 53.2227C61.418 53.2227 60.6758 53.4102 60.1211 53.7852C59.5664 54.1602 59.2891 54.6836 59.2891 55.3555C59.2891 55.9727 59.5625 56.4336 60.1094 56.7383C60.4609 56.9414 61.2109 57.1797 62.3594 57.4531L65.3359 58.168C66.6406 58.4805 67.625 58.8984 68.2891 59.4219C69.3203 60.2344 69.8359 61.4102 69.8359 62.9492C69.8359 64.5273 69.2305 65.8398 68.0195 66.8867C66.8164 67.9258 65.1133 68.4453 62.9102 68.4453C60.6602 68.4453 58.8906 67.9336 57.6016 66.9102C56.3125 65.8789 55.668 64.4648 55.668 62.668H59.1133C59.2227 63.457 59.4375 64.0469 59.7578 64.4375C60.3438 65.1484 61.3477 65.5039 62.7695 65.5039Z" fill="#3178C6"></path>
        </g>
    </g>
    <defs>
        <clipPath id="clip0_1423_357">
            <rect width="112" height="112" fill="white"></rect>
        </clipPath>
        <clipPath id="clip1_1423_357">
            <rect width="52" height="52" fill="white" transform="translate(30 30)"></rect>
        </clipPath>
    </defs>
</svg>